<svg width="183" height="183" viewBox="0 0 183 183" fill="none" xmlns="http://www.w3.org/2000/svg">
<circle cx="91.5" cy="91.5" r="91.5" fill="#077644"/>
<path d="M66.7867 139.676C79.3571 146.13 93.9764 147.326 107.429 143.001C120.881 138.676 132.064 129.184 138.518 116.614C144.972 104.044 146.168 89.4246 141.843 75.9724C137.518 62.5202 128.026 51.3371 115.456 44.8831L97.7888 79.2935C101.233 81.0618 103.833 84.1258 105.018 87.8116C106.203 91.4973 105.876 95.5029 104.107 98.947C102.339 102.391 99.2751 104.992 95.5893 106.177C91.9036 107.362 87.898 107.034 84.4539 105.266L66.7867 139.676Z" fill="#FFFC53"/>
<path d="M115.921 45.3065C103.363 38.8295 88.7459 37.6066 75.2858 41.9069C61.8257 46.2072 50.6252 55.6783 44.1482 68.2368C37.6713 80.7953 36.4484 95.4123 40.7487 108.872C45.0489 122.333 54.5201 133.533 67.0785 140.01L84.8088 105.632C81.3679 103.857 78.7729 100.789 77.5947 97.1008C76.4164 93.4128 76.7515 89.4079 78.5261 85.967C80.3007 82.5261 83.3696 79.9311 87.0575 78.7529C90.7454 77.5747 94.7503 77.9097 98.1912 79.6844L115.921 45.3065Z" fill="#054124"/>
</svg>
