<svg width="364" height="63" viewBox="0 0 364 63" fill="none" xmlns="http://www.w3.org/2000/svg">
<path d="M30.8877 7.12964L57.0235 55H4.75195L30.8877 7.12964Z" fill="#077644"/>
<mask id="mask0" mask-type="alpha" maskUnits="userSpaceOnUse" x="4" y="7" width="54" height="48">
<path d="M30.8877 7.12964L57.0235 55H4.75195L30.8877 7.12964Z" fill="#C4C4C4"/>
</mask>
<g mask="url(#mask0)">
<path d="M20.6369 54.4603L38.5636 21.2047L56.4903 54.4603H20.6369Z" fill="#FFFC53" stroke="#054124" stroke-width="2"/>
</g>
<ellipse cx="85.0601" cy="31.0648" rx="28.9869" ry="31.0648" fill="#077644"/>
<path d="M77.2309 47.4208C81.2132 49.612 85.8445 50.018 90.1061 48.5497C94.3678 47.0814 97.9105 43.8589 99.9551 39.5912C102 35.3235 102.379 30.3601 101.009 25.793C99.6384 21.226 96.6314 17.4292 92.6492 15.2381L87.0523 26.9206C88.1434 27.5209 88.9673 28.5612 89.3427 29.8125C89.7181 31.0639 89.6142 32.4238 89.054 33.5931C88.4938 34.7624 87.5232 35.6453 86.3555 36.0476C85.1879 36.4499 83.9189 36.3387 82.8279 35.7383L77.2309 47.4208Z" fill="#FFFC53"/>
<path d="M92.7967 15.3818C88.8182 13.1828 84.1876 12.7677 79.9235 14.2276C75.6593 15.6876 72.111 18.9031 70.0592 23.1668C68.0073 27.4305 67.6199 32.3931 68.9822 36.9628C70.3445 41.5326 73.3449 45.3353 77.3234 47.5342L82.9403 35.8627C81.8503 35.2602 81.0282 34.2184 80.6549 32.9663C80.2816 31.7142 80.3878 30.3545 80.95 29.1863C81.5122 28.0181 82.4844 27.1371 83.6527 26.7371C84.821 26.3371 86.0898 26.4508 87.1798 27.0533L92.7967 15.3818Z" fill="#054124"/>
<path d="M136.527 52.009C136.096 53.2402 135.593 54.0675 135.019 54.4907C134.48 54.8755 133.888 55.0679 133.242 55.0679C132.739 55.0679 132.362 54.9332 132.111 54.6639C131.895 54.3561 131.788 53.9713 131.788 53.5096C131.788 53.0478 131.877 52.5669 132.057 52.0667L144.713 15.5324C144.857 15.1092 145.198 14.7821 145.736 14.5512C146.311 14.2819 146.957 14.1472 147.675 14.1472C148.465 14.1472 149.165 14.2819 149.775 14.5512C150.422 14.8206 150.817 15.2054 150.96 15.7056L163.293 52.2975C163.365 52.6823 163.401 52.9709 163.401 53.1633C163.401 53.702 163.221 54.1637 162.862 54.5485C162.539 54.8948 162.019 55.0679 161.3 55.0679C160.546 55.0679 159.775 54.8563 158.985 54.433C158.231 54.0098 157.656 53.2018 157.261 52.009L154.407 44.1019H139.274L136.527 52.009ZM147.083 20.9577H146.759L140.135 41.1006H153.599L147.083 20.9577Z" fill="#7CE0B7"/>
<path d="M184.361 28.5762C184.361 30.0769 183.661 30.8272 182.26 30.8272H180.483C177.79 30.8272 175.78 31.539 174.451 32.9627C173.159 34.3863 172.512 36.0793 172.512 38.0417V50.9701C172.512 52.6246 172.243 53.7212 171.705 54.2599C171.202 54.7986 170.322 55.0679 169.066 55.0679C168.24 55.0679 167.665 54.8563 167.342 54.433C167.055 53.9713 166.912 53.2787 166.912 52.3553V28.5762C166.912 27.6528 167.091 27.0179 167.45 26.6716C167.809 26.2868 168.402 26.0944 169.227 26.0944C170.233 26.0944 171.005 26.5177 171.543 27.3642C172.118 28.1722 172.405 29.4035 172.405 31.058V32.5009H172.512C173.554 30.731 174.739 29.2304 176.067 27.9991C177.395 26.7293 179.101 26.0944 181.183 26.0944H181.829C182.727 26.0944 183.355 26.3061 183.714 26.7293C184.109 27.1526 184.325 27.7682 184.361 28.5762Z" fill="#7CE0B7"/>
<path d="M192.414 51.1432C192.414 52.7593 192.162 53.8174 191.66 54.3176C191.157 54.8178 190.26 55.0679 188.967 55.0679C188.141 55.0679 187.567 54.8563 187.244 54.433C186.956 53.9713 186.813 53.2787 186.813 52.3553V28.8071C186.813 27.8836 186.956 27.2103 187.244 26.787C187.567 26.3253 188.141 26.0944 188.967 26.0944C190.152 26.0944 191.014 26.4215 191.552 27.0756C192.127 27.6913 192.414 28.6532 192.414 29.9614V51.1432ZM186.167 18.7645C186.167 17.7641 186.49 16.9176 187.136 16.225C187.782 15.5324 188.572 15.1861 189.506 15.1861C190.403 15.1861 191.175 15.5324 191.821 16.225C192.504 16.9176 192.845 17.7641 192.845 18.7645C192.845 19.7264 192.504 20.5729 191.821 21.304C191.175 21.9966 190.403 22.3429 189.506 22.3429C188.572 22.3429 187.782 21.9966 187.136 21.304C186.49 20.5729 186.167 19.7264 186.167 18.7645Z" fill="#7CE0B7"/>
<path d="M215.325 49.5849C214.14 51.4703 212.776 52.8555 211.232 53.7404C209.724 54.6254 207.929 55.0679 205.846 55.0679C203.189 55.0679 201.161 54.3753 199.76 52.9901C198.396 51.5665 197.714 49.6618 197.714 47.2762C197.714 44.352 198.719 41.9471 200.73 40.0617C202.776 38.1379 206.295 37.1759 211.286 37.1759H215.217V35.5599C215.217 32.9434 214.786 31.0965 213.924 30.0191C213.099 28.9418 211.734 28.4031 209.831 28.4031C208.036 28.4031 206.456 29.2111 205.092 30.8272C203.943 32.1739 202.848 32.8472 201.807 32.8472C201.197 32.8472 200.73 32.6741 200.407 32.3278C200.084 31.943 199.922 31.462 199.922 30.8849C199.922 30.1538 200.173 29.5382 200.676 29.038C201.179 28.5378 201.915 28.076 202.884 27.6528C204.033 27.1526 205.326 26.7678 206.762 26.4985C208.234 26.2291 209.616 26.0944 210.909 26.0944C213.494 26.0944 215.504 26.4792 216.94 27.2488C218.412 28.0183 219.436 29.1534 220.01 30.654C220.585 32.1546 220.872 34.117 220.872 36.5411V52.3553C220.872 53.2787 220.728 53.9713 220.441 54.433C220.154 54.8563 219.597 55.0679 218.771 55.0679C217.587 55.0679 216.743 54.6447 216.24 53.7982C215.738 52.9132 215.486 51.528 215.486 49.6426L215.325 49.5849ZM212.147 39.6C206.259 39.6 203.315 41.8894 203.315 46.4682C203.315 49.6234 204.877 51.2009 208 51.2009C208.97 51.2009 210.011 50.9508 211.124 50.4506C212.273 49.9119 213.242 49.1424 214.032 48.142C214.858 47.1031 215.271 45.8718 215.271 44.4482V39.6H212.147Z" fill="#7CE0B7"/>
<path d="M273.419 34.6364C273.419 37.5222 273.006 40.485 272.18 43.5247C271.39 46.5644 269.775 49.2578 267.333 51.6049C264.892 53.9136 261.427 55.0679 256.939 55.0679C252.451 55.0679 248.986 53.9136 246.545 51.6049C244.139 49.2578 242.542 46.5644 241.752 43.5247C240.962 40.485 240.567 37.5222 240.567 34.6364C240.567 31.7506 240.962 28.7879 241.752 25.7482C242.542 22.7084 244.139 20.015 246.545 17.6679C248.986 15.3208 252.451 14.1472 256.939 14.1472C261.427 14.1472 264.892 15.3208 267.333 17.6679C269.775 20.015 271.39 22.7277 272.18 25.8059C273.006 28.8456 273.419 31.7891 273.419 34.6364ZM267.333 34.6364C267.333 30.173 266.633 26.1329 265.233 22.5161C263.833 18.8992 261.068 17.0907 256.939 17.0907C252.882 17.0907 250.153 18.8992 248.753 22.5161C247.353 26.1329 246.653 30.173 246.653 34.6364C246.653 39.0613 247.353 43.0822 248.753 46.6991C250.153 50.3159 252.882 52.1244 256.939 52.1244C261.068 52.1244 263.833 50.3352 265.233 46.7568C266.633 43.1399 267.333 39.0998 267.333 34.6364Z" fill="#7CE0B7"/>
<path d="M293.443 48.0265C293.443 46.9492 293.138 46.0642 292.528 45.3716C291.953 44.6405 291.199 44.0634 290.266 43.6401C289.368 43.1784 288.076 42.6397 286.388 42.0241C284.342 41.293 282.726 40.6197 281.541 40.004C280.392 39.3884 279.459 38.5996 278.741 37.6377C278.023 36.6372 277.664 35.3483 277.664 33.7707C277.664 31.7699 278.22 30.2115 279.333 29.0957C280.482 27.9414 281.811 27.1526 283.319 26.7293C284.827 26.3061 286.263 26.0944 287.627 26.0944C290.607 26.0944 292.941 26.5754 294.628 27.5373C295.454 27.9991 296.136 28.557 296.675 29.2111C297.213 29.8652 297.483 30.5963 297.483 31.4043C297.483 32.02 297.267 32.5202 296.836 32.9049C296.441 33.2897 295.957 33.4821 295.382 33.4821C294.628 33.4821 294.018 33.309 293.551 32.9627C293.12 32.6164 292.761 32.0969 292.474 31.4043C292.079 30.4809 291.505 29.7498 290.751 29.2111C289.997 28.6724 288.973 28.4031 287.681 28.4031C286.352 28.4031 285.239 28.7686 284.342 29.4997C283.48 30.1923 283.049 31.2504 283.049 32.6741C283.049 33.636 283.319 34.4633 283.857 35.1559C284.396 35.81 285.096 36.3487 285.957 36.7719C286.819 37.1952 288.022 37.6954 289.566 38.2725C291.576 39.0421 293.192 39.7347 294.413 40.3503C295.669 40.966 296.729 41.774 297.59 42.7744C298.488 43.7748 298.937 45.0061 298.937 46.4682C298.937 49.0462 297.895 51.124 295.813 52.7015C293.767 54.2791 291.092 55.0679 287.789 55.0679C286.245 55.0679 284.773 54.8948 283.372 54.5485C282.008 54.2022 280.859 53.7597 279.926 53.221C278.166 52.2591 277.287 50.9893 277.287 49.4117C277.287 48.7961 277.502 48.2959 277.933 47.9111C278.4 47.4879 278.884 47.2762 279.387 47.2762C280.787 47.2762 281.775 47.9688 282.349 49.354C282.816 50.3544 283.444 51.1817 284.234 51.8358C285.06 52.4514 286.281 52.7593 287.896 52.7593C289.476 52.7593 290.787 52.3745 291.828 51.6049C292.905 50.7969 293.443 49.6041 293.443 48.0265Z" fill="#7CE0B7"/>
<path d="M309.823 51.1432C309.823 52.7593 309.572 53.8174 309.069 54.3176C308.566 54.8178 307.669 55.0679 306.376 55.0679C305.551 55.0679 304.976 54.8563 304.653 54.433C304.366 53.9713 304.222 53.2787 304.222 52.3553V13.9164C304.222 12.9929 304.366 12.3195 304.653 11.8963C304.976 11.4346 305.551 11.2037 306.376 11.2037C307.597 11.2037 308.477 11.5692 309.015 12.3003C309.554 13.0314 309.823 14.2434 309.823 15.9364V51.1432Z" fill="#7CE0B7"/>
<path d="M327.833 55.0679C323.92 55.0679 320.886 53.8559 318.732 51.4318C316.577 49.0077 315.5 45.3908 315.5 40.5812C315.5 35.6945 316.595 32.0584 318.785 29.6728C320.976 27.2872 323.991 26.0944 327.833 26.0944C331.675 26.0944 334.691 27.2872 336.881 29.6728C339.071 32.0584 340.166 35.6945 340.166 40.5812C340.166 45.3908 339.089 49.0077 336.935 51.4318C334.78 53.8559 331.747 55.0679 327.833 55.0679ZM327.833 52.7593C329.951 52.7593 331.567 51.8935 332.68 50.162C333.793 48.3921 334.35 45.1985 334.35 40.5812C334.35 36.0408 333.775 32.8857 332.626 31.1157C331.477 29.3073 329.88 28.4031 327.833 28.4031C325.823 28.4031 324.225 29.3073 323.04 31.1157C321.891 32.9242 321.317 36.0793 321.317 40.5812C321.317 45.16 321.873 48.3344 322.986 50.1043C324.099 51.8743 325.715 52.7593 327.833 52.7593Z" fill="#7CE0B7"/>
</svg>
