<svg width="1149" height="183" viewBox="0 0 1149 183" fill="none" xmlns="http://www.w3.org/2000/svg">
<path d="M97.5 21L180 162H15L97.5 21Z" fill="#077644"/>
<mask id="mask0" mask-type="alpha" maskUnits="userSpaceOnUse" x="15" y="21" width="165" height="141">
<path d="M97.5 21L180 162H15L97.5 21Z" fill="#C4C4C4"/>
</mask>
<g mask="url(#mask0)">
<path d="M65.9186 159.856L121.73 63.2468L177.541 159.856H65.9186Z" fill="#FFFC53" stroke="#054124" stroke-width="7"/>
</g>
<circle cx="268.5" cy="91.5" r="91.5" fill="#077644"/>
<path d="M243.787 139.676C256.357 146.13 270.976 147.326 284.429 143.001C297.881 138.676 309.064 129.184 315.518 116.614C321.972 104.044 323.168 89.4246 318.843 75.9724C314.518 62.5202 305.026 51.3371 292.456 44.8831L274.789 79.2935C278.233 81.0618 280.833 84.1258 282.018 87.8116C283.203 91.4973 282.876 95.5029 281.107 98.947C279.339 102.391 276.275 104.992 272.589 106.177C268.904 107.362 264.898 107.034 261.454 105.266L243.787 139.676Z" fill="#FFFC53"/>
<path d="M292.921 45.3065C280.363 38.8295 265.746 37.6066 252.286 41.9069C238.826 46.2072 227.625 55.6783 221.148 68.2368C214.671 80.7953 213.448 95.4123 217.749 108.872C222.049 122.333 231.52 133.533 244.079 140.01L261.809 105.632C258.368 103.857 255.773 100.789 254.595 97.1008C253.416 93.4128 253.751 89.4079 255.526 85.967C257.301 82.5261 260.37 79.9311 264.057 78.7529C267.745 77.5747 271.75 77.9097 275.191 79.6844L292.921 45.3065Z" fill="#054124"/>
<path d="M430.96 153.19C429.6 156.817 428.013 159.253 426.2 160.5C424.5 161.633 422.63 162.2 420.59 162.2C419.003 162.2 417.813 161.803 417.02 161.01C416.34 160.103 416 158.97 416 157.61C416 156.25 416.283 154.833 416.85 153.36L456.8 45.75C457.253 44.5033 458.33 43.54 460.03 42.86C461.843 42.0667 463.883 41.67 466.15 41.67C468.643 41.67 470.853 42.0667 472.78 42.86C474.82 43.6533 476.067 44.7867 476.52 46.26L515.45 154.04C515.677 155.173 515.79 156.023 515.79 156.59C515.79 158.177 515.223 159.537 514.09 160.67C513.07 161.69 511.427 162.2 509.16 162.2C506.78 162.2 504.343 161.577 501.85 160.33C499.47 159.083 497.657 156.703 496.41 153.19L487.4 129.9H439.63L430.96 153.19ZM464.28 61.73H463.26L442.35 121.06H484.85L464.28 61.73Z" fill="#7CE0B7"/>
<path d="M581.952 84.17C581.952 88.59 579.742 90.8 575.322 90.8H569.712C561.212 90.8 554.865 92.8967 550.672 97.09C546.592 101.283 544.552 106.27 544.552 112.05V150.13C544.552 155.003 543.702 158.233 542.002 159.82C540.415 161.407 537.639 162.2 533.672 162.2C531.065 162.2 529.252 161.577 528.232 160.33C527.325 158.97 526.872 156.93 526.872 154.21V84.17C526.872 81.45 527.439 79.58 528.572 78.56C529.705 77.4267 531.575 76.86 534.182 76.86C537.355 76.86 539.792 78.1067 541.492 80.6C543.305 82.98 544.212 86.6067 544.212 91.48V95.73H544.552C547.839 90.5167 551.579 86.0967 555.772 82.47C559.965 78.73 565.349 76.86 571.922 76.86H573.962C576.795 76.86 578.779 77.4833 579.912 78.73C581.159 79.9767 581.839 81.79 581.952 84.17Z" fill="#7CE0B7"/>
<path d="M607.372 150.64C607.372 155.4 606.579 158.517 604.992 159.99C603.406 161.463 600.572 162.2 596.492 162.2C593.886 162.2 592.072 161.577 591.052 160.33C590.146 158.97 589.692 156.93 589.692 154.21V84.85C589.692 82.13 590.146 80.1467 591.052 78.9C592.072 77.54 593.886 76.86 596.492 76.86C600.232 76.86 602.952 77.8233 604.652 79.75C606.466 81.5633 607.372 84.3967 607.372 88.25V150.64ZM587.652 55.27C587.652 52.3233 588.672 49.83 590.712 47.79C592.752 45.75 595.246 44.73 598.192 44.73C601.026 44.73 603.462 45.75 605.502 47.79C607.656 49.83 608.732 52.3233 608.732 55.27C608.732 58.1033 607.656 60.5967 605.502 62.75C603.462 64.79 601.026 65.81 598.192 65.81C595.246 65.81 592.752 64.79 590.712 62.75C588.672 60.5967 587.652 58.1033 587.652 55.27Z" fill="#7CE0B7"/>
<path d="M679.693 146.05C675.953 151.603 671.646 155.683 666.773 158.29C662.013 160.897 656.346 162.2 649.773 162.2C641.386 162.2 634.983 160.16 630.563 156.08C626.256 151.887 624.103 146.277 624.103 139.25C624.103 130.637 627.276 123.553 633.623 118C640.083 112.333 651.189 109.5 666.943 109.5H679.353V104.74C679.353 97.0333 677.993 91.5933 675.273 88.42C672.666 85.2467 668.359 83.66 662.353 83.66C656.686 83.66 651.699 86.04 647.393 90.8C643.766 94.7667 640.309 96.75 637.023 96.75C635.096 96.75 633.623 96.24 632.603 95.22C631.583 94.0867 631.073 92.67 631.073 90.97C631.073 88.8167 631.866 87.0033 633.453 85.53C635.039 84.0567 637.363 82.6967 640.423 81.45C644.049 79.9767 648.129 78.8433 652.663 78.05C657.309 77.2567 661.673 76.86 665.753 76.86C673.913 76.86 680.259 77.9933 684.793 80.26C689.439 82.5267 692.669 85.87 694.483 90.29C696.296 94.71 697.203 100.49 697.203 107.63V154.21C697.203 156.93 696.749 158.97 695.843 160.33C694.936 161.577 693.179 162.2 690.573 162.2C686.833 162.2 684.169 160.953 682.583 158.46C680.996 155.853 680.203 151.773 680.203 146.22L679.693 146.05ZM669.663 116.64C651.076 116.64 641.783 123.383 641.783 136.87C641.783 146.163 646.713 150.81 656.573 150.81C659.633 150.81 662.919 150.073 666.433 148.6C670.059 147.013 673.119 144.747 675.613 141.8C678.219 138.74 679.523 135.113 679.523 130.92V116.64H669.663Z" fill="#7CE0B7"/>
<path d="M863.072 102.02C863.072 110.52 861.769 119.247 859.162 128.2C856.669 137.153 851.569 145.087 843.862 152C836.155 158.8 825.219 162.2 811.052 162.2C796.885 162.2 785.949 158.8 778.242 152C770.649 145.087 765.605 137.153 763.112 128.2C760.619 119.247 759.372 110.52 759.372 102.02C759.372 93.52 760.619 84.7933 763.112 75.84C765.605 66.8867 770.649 58.9533 778.242 52.04C785.949 45.1267 796.885 41.67 811.052 41.67C825.219 41.67 836.155 45.1267 843.862 52.04C851.569 58.9533 856.669 66.9433 859.162 76.01C861.769 84.9633 863.072 93.6333 863.072 102.02ZM843.862 102.02C843.862 88.8733 841.652 76.9733 837.232 66.32C832.812 55.6667 824.085 50.34 811.052 50.34C798.245 50.34 789.632 55.6667 785.212 66.32C780.792 76.9733 778.582 88.8733 778.582 102.02C778.582 115.053 780.792 126.897 785.212 137.55C789.632 148.203 798.245 153.53 811.052 153.53C824.085 153.53 832.812 148.26 837.232 137.72C841.652 127.067 843.862 115.167 843.862 102.02Z" fill="#7CE0B7"/>
<path d="M926.282 141.46C926.282 138.287 925.318 135.68 923.392 133.64C921.578 131.487 919.198 129.787 916.252 128.54C913.418 127.18 909.338 125.593 904.012 123.78C897.552 121.627 892.452 119.643 888.712 117.83C885.085 116.017 882.138 113.693 879.872 110.86C877.605 107.913 876.472 104.117 876.472 99.47C876.472 93.5767 878.228 88.9867 881.742 85.7C885.368 82.3 889.562 79.9767 894.322 78.73C899.082 77.4833 903.615 76.86 907.922 76.86C917.328 76.86 924.695 78.2767 930.022 81.11C932.628 82.47 934.782 84.1133 936.482 86.04C938.182 87.9667 939.032 90.12 939.032 92.5C939.032 94.3133 938.352 95.7867 936.992 96.92C935.745 98.0533 934.215 98.62 932.402 98.62C930.022 98.62 928.095 98.11 926.622 97.09C925.262 96.07 924.128 94.54 923.222 92.5C921.975 89.78 920.162 87.6267 917.782 86.04C915.402 84.4533 912.172 83.66 908.092 83.66C903.898 83.66 900.385 84.7367 897.552 86.89C894.832 88.93 893.472 92.0467 893.472 96.24C893.472 99.0733 894.322 101.51 896.022 103.55C897.722 105.477 899.932 107.063 902.652 108.31C905.372 109.557 909.168 111.03 914.042 112.73C920.388 114.997 925.488 117.037 929.342 118.85C933.308 120.663 936.652 123.043 939.372 125.99C942.205 128.937 943.622 132.563 943.622 136.87C943.622 144.463 940.335 150.583 933.762 155.23C927.302 159.877 918.858 162.2 908.432 162.2C903.558 162.2 898.912 161.69 894.492 160.67C890.185 159.65 886.558 158.347 883.612 156.76C878.058 153.927 875.282 150.187 875.282 145.54C875.282 143.727 875.962 142.253 877.322 141.12C878.795 139.873 880.325 139.25 881.912 139.25C886.332 139.25 889.448 141.29 891.262 145.37C892.735 148.317 894.718 150.753 897.212 152.68C899.818 154.493 903.672 155.4 908.772 155.4C913.758 155.4 917.895 154.267 921.182 152C924.582 149.62 926.282 146.107 926.282 141.46Z" fill="#7CE0B7"/>
<path d="M977.985 150.64C977.985 155.4 977.192 158.517 975.605 159.99C974.019 161.463 971.185 162.2 967.105 162.2C964.499 162.2 962.685 161.577 961.665 160.33C960.759 158.97 960.305 156.93 960.305 154.21V40.99C960.305 38.27 960.759 36.2867 961.665 35.04C962.685 33.68 964.499 33 967.105 33C970.959 33 973.735 34.0767 975.435 36.23C977.135 38.3833 977.985 41.9533 977.985 46.94V150.64Z" fill="#7CE0B7"/>
<path d="M1034.84 162.2C1022.48 162.2 1012.91 158.63 1006.11 151.49C999.306 144.35 995.906 133.697 995.906 119.53C995.906 105.137 999.363 94.4267 1006.28 87.4C1013.19 80.3733 1022.71 76.86 1034.84 76.86C1046.96 76.86 1056.48 80.3733 1063.4 87.4C1070.31 94.4267 1073.77 105.137 1073.77 119.53C1073.77 133.697 1070.37 144.35 1063.57 151.49C1056.77 158.63 1047.19 162.2 1034.84 162.2ZM1034.84 155.4C1041.52 155.4 1046.62 152.85 1050.14 147.75C1053.65 142.537 1055.41 133.13 1055.41 119.53C1055.41 106.157 1053.59 96.8633 1049.97 91.65C1046.34 86.3233 1041.3 83.66 1034.84 83.66C1028.49 83.66 1023.45 86.3233 1019.71 91.65C1016.08 96.9767 1014.27 106.27 1014.27 119.53C1014.27 133.017 1016.02 142.367 1019.54 147.58C1023.05 152.793 1028.15 155.4 1034.84 155.4Z" fill="#7CE0B7"/>
</svg>
